<svg width="502" height="76" viewBox="0 0 502 76" fill="none" xmlns="http://www.w3.org/2000/svg">
<g clip-path="url(#clip0_802_19)">
<path d="M61.75 5.01562C59.6719 5.01562 58 6.68712 58 8.76478C58 10.8424 59.6719 12.5139 61.75 12.5139H70.7656L73.3281 17.2473L58 30.01L50.9219 22.9335C49.0469 21.0589 46.5 20.0123 43.8437 20.0123H28C25.2344 20.0123 23 22.2462 23 25.0112V30.01H38C51.8125 30.01 63 41.195 63 55.0045C63 56.7228 62.8281 58.3943 62.5 60.0033H73.5C73.1719 58.3943 73 56.7228 73 55.0045C73 46.85 76.9063 39.6017 82.9531 35.0402L85.3594 39.5079C80.875 43.179 78 48.7559 78 55.0045C78 66.0489 86.9531 75 98 75C109.047 75 118 66.0489 118 55.0045C118 43.9601 109.047 35.0089 98 35.0089C95.8906 35.0089 93.8594 35.337 91.9531 35.9462L83.3438 20.0123H93C95.7656 20.0123 98 17.7784 98 15.0134V10.0145C98 7.2495 95.7656 5.01562 93 5.01562H89.8125C88.6406 5.01562 87.5156 5.42178 86.6094 6.17161L79.2031 12.3421L77.0156 8.28052C75.9219 6.26534 73.8125 5 71.5156 5H61.75V5.01562ZM90.2969 48.6309L94.7031 56.7853C95.6875 58.613 97.9688 59.2848 99.7813 58.3006C101.594 57.3164 102.281 55.0357 101.297 53.2236L96.8906 45.0692C97.25 45.0223 97.625 45.0067 98 45.0067C103.516 45.0067 108 49.4901 108 55.0045C108 60.5189 103.516 65.0022 98 65.0022C92.4844 65.0022 88 60.5189 88 55.0045C88 52.5831 88.8594 50.3649 90.2969 48.6309ZM47.2656 58.7536C45.7813 62.4247 42.1875 65.0022 38 65.0022C32.4844 65.0022 28 60.5189 28 55.0045C28 49.4901 32.4844 45.0067 38 45.0067C42.2031 45.0067 45.7969 47.5842 47.2656 51.2553H57.6406C55.8906 42.0074 47.7656 35.0089 38 35.0089C26.9531 35.0089 18 43.9601 18 55.0045C18 66.0489 26.9531 75 38 75C47.7656 75 55.8906 68.0016 57.6563 58.7536H47.2656ZM38 60.0033C39.3261 60.0033 40.5979 59.4767 41.5355 58.5392C42.4732 57.6017 43 56.3303 43 55.0045C43 53.6787 42.4732 52.4072 41.5355 51.4697C40.5979 50.5322 39.3261 50.0056 38 50.0056C36.6739 50.0056 35.4021 50.5322 34.4645 51.4697C33.5268 52.4072 33 53.6787 33 55.0045C33 56.3303 33.5268 57.6017 34.4645 58.5392C35.4021 59.4767 36.6739 60.0033 38 60.0033Z" fill="#D60C0C"/>
<path d="M197.864 23.448C197.864 26.2 197.992 28.888 198.248 31.512C198.568 34.072 199.048 37.688 199.688 42.36C200.904 50.232 201.512 56.504 201.512 61.176C201.512 62.136 201.32 62.712 200.936 62.904C200.552 63.096 200.104 63.192 199.592 63.192C199.08 63.192 198.728 63.192 198.536 63.192C197.64 63.192 196.936 63.096 196.424 62.904C195.912 62.648 195.496 62.072 195.176 61.176L193.16 35.064C192.968 32.44 192.712 27.16 192.392 19.224C189.64 22.424 186.92 24.856 184.232 26.52C181.544 28.12 178.792 28.92 175.976 28.92C171.944 28.92 167.912 26.072 163.88 20.376C164.072 21.336 164.168 22.616 164.168 24.216C164.168 25.816 164.168 26.744 164.168 27L164.072 58.392C164.072 59.032 163.72 59.544 163.016 59.928C162.376 60.248 161.704 60.408 161 60.408C160.104 60.408 159.464 60.088 159.08 59.448C158.76 58.744 158.504 57.816 158.312 56.664V43.224C158.312 41.176 158.376 38.872 158.504 36.312C158.632 33.752 158.728 31.96 158.792 30.936C159.112 26.456 159.272 22.392 159.272 18.744C159.272 17.656 159.08 16.632 158.696 15.672C158.312 14.648 157.736 13.528 156.968 12.312C156.2 11.096 155.624 10.04 155.24 9.144C154.92 8.248 154.76 7.288 154.76 6.264C154.76 5.048 155.368 4.44 156.584 4.44C158.504 4.44 160.072 5.144 161.288 6.552C162.504 7.896 163.816 9.944 165.224 12.696C166.44 14.936 167.496 16.696 168.392 17.976C169.288 19.256 170.44 20.376 171.848 21.336C173.256 22.232 174.952 22.68 176.936 22.68C179.816 22.808 182.184 22.264 184.04 21.048C185.896 19.768 187.304 18.232 188.264 16.44C189.224 14.648 190.152 12.472 191.048 9.912C191.816 7.8 192.488 6.328 193.064 5.496C193.64 4.6 194.344 4.248 195.176 4.44C197.096 4.312 198.056 6.072 198.056 9.72C198.056 12.792 198.024 15.064 197.96 16.536L197.864 23.448ZM231.025 63.096C227.249 63.096 223.825 62.264 220.753 60.6C217.745 58.872 215.377 56.504 213.648 53.496C211.985 50.424 211.153 46.936 211.153 43.032C211.153 36.632 213.489 31.864 218.161 28.728C222.897 25.592 228.689 24.024 235.536 24.024C238.673 24.024 241.585 24.792 244.273 26.328C247.025 27.864 249.233 30.072 250.897 32.952C252.561 35.832 253.393 39.16 253.393 42.936C253.393 47.032 252.337 50.616 250.225 53.688C248.113 56.696 245.329 59.032 241.873 60.696C238.481 62.296 234.865 63.096 231.025 63.096ZM229.969 57.624C235.921 57.624 240.433 56.28 243.505 53.592C246.577 50.904 248.113 46.968 248.113 41.784C248.113 38.264 246.897 35.224 244.465 32.664C242.097 30.104 238.769 28.824 234.481 28.824C231.601 28.824 228.689 29.368 225.745 30.456C222.801 31.544 220.369 33.176 218.449 35.352C216.529 37.528 215.569 40.152 215.569 43.224C215.569 45.784 216.209 48.184 217.489 50.424C218.769 52.6 220.497 54.36 222.673 55.704C224.913 56.984 227.345 57.624 229.969 57.624ZM276.484 63C275.844 63.128 275.428 63.192 275.236 63.192C273.252 63.192 271.876 61.72 271.108 58.776C270.404 55.832 270.052 51.704 270.052 46.392C270.052 44.216 270.116 40.824 270.244 36.216C270.372 33.4 270.436 31.288 270.436 29.88C262.564 29.88 258.628 28.984 258.628 27.192C258.628 26.616 258.692 26.168 258.82 25.848C259.012 25.528 259.396 25.368 259.972 25.368L270.436 24.696C270.372 21.56 270.212 18.136 269.956 14.424C269.7 11.096 269.54 8.024 269.476 5.20799C269.476 4.504 269.764 4.024 270.34 3.768C270.916 3.448 271.524 3.288 272.164 3.288C272.932 3.288 273.572 3.704 274.084 4.536C274.596 5.304 274.852 6.104 274.852 6.936L275.524 24.504L283.492 24.888C284.708 24.76 285.732 24.984 286.564 25.56C287.46 26.136 287.94 27.096 288.004 28.44C286.66 29.016 285.188 29.368 283.588 29.496C281.988 29.624 279.3 29.688 275.524 29.688C275.524 35.64 275.812 45.432 276.388 59.064C276.388 60.472 276.388 61.464 276.388 62.04C276.452 62.552 276.484 62.872 276.484 63ZM313.15 63.096C309.374 63.096 305.95 62.264 302.878 60.6C299.87 58.872 297.502 56.504 295.773 53.496C294.11 50.424 293.278 46.936 293.278 43.032C293.278 36.632 295.614 31.864 300.286 28.728C305.022 25.592 310.814 24.024 317.661 24.024C320.798 24.024 323.71 24.792 326.398 26.328C329.15 27.864 331.358 30.072 333.022 32.952C334.686 35.832 335.518 39.16 335.518 42.936C335.518 47.032 334.462 50.616 332.35 53.688C330.238 56.696 327.454 59.032 323.998 60.696C320.606 62.296 316.99 63.096 313.15 63.096ZM312.094 57.624C318.046 57.624 322.558 56.28 325.63 53.592C328.702 50.904 330.238 46.968 330.238 41.784C330.238 38.264 329.022 35.224 326.59 32.664C324.222 30.104 320.894 28.824 316.606 28.824C313.726 28.824 310.814 29.368 307.87 30.456C304.926 31.544 302.494 33.176 300.574 35.352C298.654 37.528 297.694 40.152 297.694 43.224C297.694 45.784 298.334 48.184 299.614 50.424C300.894 52.6 302.622 54.36 304.798 55.704C307.038 56.984 309.47 57.624 312.094 57.624ZM387.697 63C386.097 63.32 384.977 62.552 384.337 60.696C383.697 58.776 383.345 55.96 383.281 52.248C383.153 46.808 382.961 42.264 382.705 38.616C382.513 34.904 382.129 31.576 381.553 28.632C375.601 31.448 369.713 34.04 363.889 36.408C358.129 38.712 355.249 39.832 355.249 39.768L355.441 60.216C355.441 61.176 354.865 61.784 353.713 62.04C352.177 62.36 351.153 61.496 350.641 59.448C350.193 57.336 349.873 54.04 349.681 49.56C349.553 45.528 349.361 42.68 349.105 41.016C347.313 41.912 345.777 42.328 344.497 42.264C344.241 41.752 344.113 40.696 344.113 39.096C344.625 38.904 345.233 38.68 345.937 38.424C346.705 38.168 347.249 37.88 347.569 37.56C347.953 37.176 348.145 36.632 348.145 35.928C348.145 32.728 347.825 27.8 347.185 21.144C346.481 15.128 346.129 10.168 346.129 6.264L346.225 1.848C346.417 1.4 346.641 1.112 346.897 0.983997C347.217 0.855999 347.633 0.792 348.145 0.792C349.233 0.792 349.777 1.144 349.777 1.848L353.713 35.64C355.505 35.192 358.481 34.04 362.641 32.184C366.801 30.328 373.201 27.32 381.841 23.16L382.225 1.848C382.225 -0.648005 383.153 -1.89601 385.009 -1.89601C385.777 -1.89601 386.289 -1.60801 386.545 -1.03201C386.865 -0.456005 386.961 0.503996 386.833 1.848L386.737 18.456C386.737 24.088 387.057 31.416 387.697 40.44C387.889 42.232 388.049 43.96 388.177 45.624C388.369 47.224 388.529 48.76 388.656 50.232C389.041 54.2 389.297 56.728 389.425 57.816C389.617 58.84 389.905 59.768 390.289 60.6C389.969 61.88 389.105 62.68 387.697 63ZM443.094 62.52C441.942 62.52 441.014 62.04 440.31 61.08C439.67 60.056 439.094 58.52 438.582 56.472C438.07 54.36 437.27 50.712 436.182 45.528C435.094 49.816 433.046 53.24 430.038 55.8C427.03 58.296 423.35 59.544 418.998 59.544C415.03 59.544 411.67 58.168 408.918 55.416C406.23 52.6 404.214 48.92 402.87 44.376C401.526 39.768 400.854 34.808 400.854 29.496C400.854 27.064 401.078 24.984 401.526 23.256C402.038 21.464 402.646 20.12 403.35 19.224C404.118 18.328 404.854 17.912 405.558 17.976C406.326 17.976 406.71 18.488 406.71 19.512C406.71 20.344 406.486 21.656 406.038 23.448C405.59 25.432 405.366 27.704 405.366 30.264C405.366 34.104 405.91 37.848 406.998 41.496C408.15 45.144 409.814 48.152 411.99 50.52C414.23 52.824 416.854 53.976 419.862 53.976C422.358 53.976 424.63 53.24 426.678 51.768C428.726 50.296 430.326 48.44 431.478 46.2C432.694 43.96 433.302 41.752 433.302 39.576V24.312C434.006 22.968 434.966 22.296 436.182 22.296C437.27 22.296 438.006 23.224 438.39 25.08C438.774 26.936 438.966 29.56 438.966 32.952C438.966 35.832 438.934 38.04 438.87 39.576C439.254 41.688 439.83 43.832 440.598 46.008C441.43 48.184 442.454 50.648 443.67 53.4C445.142 56.792 445.878 58.872 445.878 59.64C445.878 61.56 444.95 62.52 443.094 62.52ZM479.414 63.096C474.294 63.096 470.262 62.104 467.318 60.12C464.374 58.072 462.198 55 460.79 50.904C459.382 46.744 458.454 41.176 458.006 34.2L455.222 17.976C454.966 15.608 454.614 13.304 454.166 11.064C453.718 8.824 453.494 7.224 453.494 6.264C453.494 4.92 453.878 3.928 454.646 3.288C455.414 2.584 456.79 2.104 458.774 1.848C459.158 5.048 459.414 7.448 459.542 9.048C460.246 15.256 460.822 20.024 461.27 23.352C461.782 26.616 462.422 30.04 463.19 33.624C468.118 31.448 472.854 30.36 477.398 30.36C481.494 30.36 485.142 31.224 488.342 32.952C491.542 34.616 494.038 36.984 495.83 40.056C497.622 43.064 498.518 46.456 498.518 50.232C498.518 54.648 496.566 57.912 492.662 60.024C488.822 62.072 484.406 63.096 479.414 63.096ZM493.142 50.424C493.206 49.976 493.238 49.336 493.238 48.504C493.238 43.96 491.67 40.568 488.534 38.328C485.462 36.088 481.078 34.968 475.382 34.968C471.862 34.968 469.11 35.672 467.126 37.08C465.206 38.424 464.246 40.28 464.246 42.648C464.246 48.088 465.718 52.056 468.662 54.552C471.67 57.048 476.246 58.296 482.39 58.296C485.334 58.296 487.798 57.624 489.782 56.28C491.766 54.936 492.886 52.984 493.142 50.424Z" fill="black"/>
</g>
<defs>
<clipPath id="clip0_802_19">
<rect width="501.28" height="75.3645" fill="white"/>
</clipPath>
</defs>
</svg>
